<mxfile host="app.diagrams.net" modified="2023-08-22T10:44:08.922Z" agent="Mozilla/5.0 (Windows NT 10.0; Win64; x64; rv:109.0) Gecko/20100101 Firefox/116.0" version="21.5.2" etag="Xwq3j5QZe0W7A_rPRZb0" type="github">
  <diagram name="Page-1" id="84YduwxvheO9712kBQQh">
    <mxGraphModel>
      <root>
        <mxCell id="0" />
        <mxCell id="1" parent="0" />
      </root>
    </mxGraphModel>
  </diagram>
</mxfile>
